<?xml version="1.0" standalone="no"?>
<!DOCTYPE svg PUBLIC "-//W3C//DTD SVG 20010904//EN"
 "http://www.w3.org/TR/2001/REC-SVG-20010904/DTD/svg10.dtd">
<svg version="1.0" xmlns="http://www.w3.org/2000/svg"
 width="216.000000pt" height="216.000000pt" viewBox="0 0 216.000000 216.000000"
 preserveAspectRatio="xMidYMid meet">
<metadata>
Created by potrace 1.11, written by Peter Selinger 2001-2013
</metadata>
<g transform="translate(0.000000,216.000000) scale(0.100000,-0.100000)"
fill="#000000" stroke="none">
<path d="M620 1830 c-310 -64 -544 -295 -605 -599 -17 -84 -12 -258 9 -339 37
-140 102 -250 207 -352 237 -231 625 -283 937 -126 l68 33 50 -44 c27 -25 63
-57 79 -73 l31 -28 51 57 c28 31 74 81 102 111 28 30 50 58 51 62 0 4 -31 33
-70 64 -38 31 -70 60 -70 65 0 5 13 33 29 62 139 246 121 572 -44 802 -101
142 -277 260 -450 300 -101 24 -271 26 -375 5z m266 -291 c219 -53 361 -244
353 -474 -3 -63 -12 -115 -29 -160 l-10 -27 -93 84 c-50 45 -105 95 -122 111
l-30 27 -19 -22 c-10 -13 -50 -58 -89 -102 -40 -43 -77 -86 -84 -95 -14 -18
-7 -25 143 -149 92 -75 92 -77 -11 -98 -125 -26 -269 2 -364 72 -181 134 -237
380 -137 599 29 65 122 162 184 194 89 46 217 62 308 40z"/>
<path d="M1808 623 c-2 -5 -4 -80 -3 -168 l1 -160 172 -1 172 0 0 168 0 168
-169 0 c-94 0 -171 -3 -173 -7z"/>
</g>
</svg>
